<svg xmlns="http://www.w3.org/2000/svg" viewBox="0 25.489999771118164 25.809999465942383 27.420000076293945" data-asc="1.0478515625" width="25.809999465942383" height="27.420000076293945"><defs/><g fill="#000000"><g transform="translate(0, 0)"><path d="M8.62 52.91Q4.71 52.91 2.36 50.77Q0 48.63 0 45.00Q0 41.28 3.00 38.93Q6.01 36.57 11.94 36.57L15.09 36.57L15.09 34.81Q15.09 33.06 14.07 31.91Q13.06 30.76 10.99 30.76Q9.99 30.76 9.17 31.01Q8.35 31.25 7.67 31.71L7.10 35.13L1.54 35.13L1.44 28.05Q3.59 26.95 6.03 26.22Q8.47 25.49 11.45 25.49Q16.75 25.49 19.82 27.93Q22.90 30.37 22.90 34.89L22.90 45.24Q22.90 45.80 22.91 46.33Q22.92 46.85 23.02 47.34L25.81 47.78L25.81 52.39L16.43 52.39Q16.14 51.83 15.82 51.07Q15.50 50.32 15.38 49.56Q14.14 51.10 12.52 52.00Q10.91 52.91 8.62 52.91M10.86 47.27Q12.08 47.27 13.23 46.73Q14.38 46.19 15.09 45.26L15.09 41.26L11.99 41.26Q9.94 41.26 8.85 42.19Q7.76 43.12 7.76 44.48Q7.76 45.80 8.61 46.53Q9.45 47.27 10.86 47.27Z"/></g></g></svg>