<svg xmlns="http://www.w3.org/2000/svg" viewBox="0 25.489999771118164 30.469999313354492 26.899999618530273" data-asc="1.0478515625" width="30.469999313354492" height="26.899999618530273"><defs/><g fill="#000000"><g transform="translate(0, 0)"><path d="M0.46 52.39L0.46 47.78L3.74 47.02L3.74 31.37L0 30.62L0 25.98L11.06 25.98L11.38 29.71Q12.70 27.71 14.62 26.60Q16.55 25.49 19.02 25.49Q22.83 25.49 25.02 28.00Q27.22 30.52 27.22 35.94L27.22 47.02L30.47 47.78L30.47 52.39L16.58 52.39L16.58 47.78L19.38 47.02L19.38 35.94Q19.38 33.54 18.42 32.53Q17.46 31.52 15.63 31.52Q14.26 31.52 13.24 32.07Q12.23 32.62 11.55 33.64L11.55 47.02L14.09 47.78L14.09 52.39L0.46 52.39Z"/></g></g></svg>