<svg xmlns="http://www.w3.org/2000/svg" viewBox="0 25.489999771118164 25.290000915527344 27.420000076293945" data-asc="1.0478515625" width="25.290000915527344" height="27.420000076293945"><defs/><g fill="#000000"><g transform="translate(0, 0)"><path d="M12.70 52.91Q8.69 52.91 5.85 51.21Q3.00 49.51 1.50 46.47Q0 43.43 0 39.43L0 38.94Q0 34.99 1.50 31.96Q3.00 28.93 5.83 27.21Q8.67 25.49 12.65 25.49Q16.63 25.49 19.46 27.20Q22.29 28.91 23.79 31.93Q25.29 34.96 25.29 38.94L25.29 39.43Q25.29 43.41 23.79 46.45Q22.29 49.49 19.47 51.20Q16.65 52.91 12.70 52.91M12.70 46.95Q14.40 46.95 15.47 46.02Q16.53 45.09 17.03 43.41Q17.53 41.72 17.53 39.43L17.53 38.94Q17.53 36.72 17.03 35.05Q16.53 33.37 15.45 32.42Q14.38 31.47 12.65 31.47Q10.94 31.47 9.86 32.42Q8.79 33.37 8.30 35.05Q7.81 36.72 7.81 38.94L7.81 39.43Q7.81 41.72 8.30 43.42Q8.79 45.12 9.86 46.03Q10.94 46.95 12.70 46.95Z"/></g></g></svg>